<?xml version="1.0" encoding="UTF-8"?>
<svg id="Layer_2" data-name="Layer 2" xmlns="http://www.w3.org/2000/svg" viewBox="0 0 120.71 54.84">
  <defs>
    <style>
      .cls-1 {
        fill: #df2449;
      }

      .cls-2 {
        font-family: Cardo-Bold, 'Cardo Bold';
        font-weight: 700;
      }

      .cls-2, .cls-3 {
        fill: #fff;
      }

      .cls-4 {
        letter-spacing: .2em;
      }

      .cls-5 {
        letter-spacing: .16em;
      }

      .cls-3 {
        font-family: GlacialIndifference-Regular, 'GlacialIndifference Regular';
        font-size: 6.41px;
      }

      .cls-6 {
        font-size: 12.36px;
      }

      .cls-7 {
        font-size: 12.41px;
      }

      .cls-8 {
        letter-spacing: .1em;
      }

      .cls-9 {
        letter-spacing: .1em;
      }

      .cls-10 {
        letter-spacing: .09em;
      }

      .cls-11 {
        letter-spacing: .08em;
      }

      .cls-12 {
        letter-spacing: .05em;
      }

      .cls-13 {
        letter-spacing: .05em;
      }

      .cls-14 {
        letter-spacing: .05em;
      }

      .cls-15 {
        letter-spacing: .05em;
      }

      .cls-16 {
        letter-spacing: .04em;
      }

      .cls-17 {
        letter-spacing: .05em;
      }

      .cls-18 {
        letter-spacing: .04em;
      }

      .cls-19 {
        letter-spacing: .04em;
      }
    </style>
  </defs>
  <g id="Capa_1" data-name="Capa 1">
    <g>
      <g>
        <g>
          <polygon class="cls-1" points="33.59 0 33.59 7.47 11.79 7.47 11.79 0 8.23 0 8.23 7.47 8.23 11.04 8.23 39.07 11.79 39.07 11.79 11.04 33.59 11.04 33.59 54.84 37.15 54.84 37.15 11.04 37.15 7.47 37.15 0 33.59 0"/>
          <polygon class="cls-1" points="28.93 43.06 28.93 46.62 28.93 54.84 25.36 54.84 25.36 46.62 3.56 46.62 3.56 54.84 0 54.84 0 46.62 0 43.06 0 0 3.56 0 3.56 43.06 25.36 43.06 28.93 43.06"/>
          <polygon class="cls-1" points="28.93 32.01 25.36 32.01 25.36 35.51 19.39 35.51 19.39 18.1 25.36 18.1 25.36 21.52 28.93 21.52 28.93 14.54 28.79 14.54 25.36 14.54 15.83 14.54 15.83 17.17 15.83 18.1 15.83 35.51 15.83 39.07 19.39 39.07 28.93 39.07 28.93 32.01"/>
        </g>
        <path class="cls-1" d="M39.32,1.68c0-.95.75-1.68,1.7-1.68s1.7.73,1.7,1.68-.74,1.67-1.7,1.67-1.7-.73-1.7-1.67ZM42.42,1.68c0-.8-.6-1.41-1.39-1.41s-1.39.61-1.39,1.41.6,1.4,1.39,1.4,1.39-.61,1.39-1.4ZM40.39,1.96v-.58c0-.29,0-.45-.02-.65h.64c.48,0,.74.17.74.49,0,.23-.17.41-.46.46l.75.93h-.52l-.62-.86h-.1v.21c0,.28,0,.45.02.65h-.45c0-.2.02-.37.02-.65ZM41.34,1.22c0-.21-.15-.35-.37-.35h-.16v.72h.16c.23,0,.37-.16.37-.37Z"/>
      </g>
      <text class="cls-2" transform="translate(50.06 11.53)"><tspan class="cls-7"><tspan class="cls-19" x="0" y="0">C</tspan><tspan class="cls-14" x="7.68" y="0">e</tspan><tspan class="cls-11" x="14.52" y="0">r</tspan><tspan class="cls-17" x="19.51" y="0">v</tspan><tspan class="cls-13" x="26.05" y="0">a</tspan><tspan class="cls-17" x="32.65" y="0">n</tspan><tspan class="cls-18" x="40.1" y="0">t</tspan><tspan class="cls-14" x="44.76" y="0">es y</tspan></tspan><tspan class="cls-6"><tspan class="cls-9" x="0" y="14.84">He</tspan><tspan class="cls-8" x="16.6" y="14.84">r</tspan><tspan class="cls-10" x="21.87" y="14.84">nández</tspan></tspan><tspan class="cls-7"><tspan class="cls-13" x="0" y="29.73">He</tspan><tspan class="cls-15" x="15.55" y="29.73">r</tspan><tspan class="cls-16" x="20.28" y="29.73">r</tspan><tspan class="cls-14" x="24.83" y="29.73">e</tspan><tspan class="cls-12" x="31.67" y="29.73">r</tspan><tspan class="cls-13" x="36.28" y="29.73">a</tspan></tspan></text>
      <text class="cls-3" transform="translate(50.29 51.71)"><tspan class="cls-4" x="0" y="0">P E N A L I S</tspan><tspan class="cls-5" x="47.27" y="0"> </tspan><tspan class="cls-4" x="49.65" y="0">T A S </tspan></text>
    </g>
  </g>
</svg>