<?xml version="1.0" encoding="UTF-8"?>
<svg id="Layer_2" data-name="Layer 2" xmlns="http://www.w3.org/2000/svg" viewBox="0 0 117.79 54.84">
  <defs>
    <style>
      .cls-1 {
        fill: #df2449;
      }

      .cls-2 {
        fill: #fff;
      }
    </style>
  </defs>
  <g id="Capa_1" data-name="Capa 1">
    <g>
      <g>
        <g>
          <polygon class="cls-1" points="33.59 0 33.59 7.47 11.79 7.47 11.79 0 8.23 0 8.23 7.47 8.23 11.04 8.23 39.07 11.79 39.07 11.79 11.04 33.59 11.04 33.59 54.84 37.15 54.84 37.15 11.04 37.15 7.47 37.15 0 33.59 0"/>
          <polygon class="cls-1" points="28.93 43.06 28.93 46.62 28.93 54.84 25.36 54.84 25.36 46.62 3.56 46.62 3.56 54.84 0 54.84 0 46.62 0 43.06 0 0 3.56 0 3.56 43.06 25.36 43.06 28.93 43.06"/>
          <polygon class="cls-1" points="28.93 32.01 25.36 32.01 25.36 35.51 19.39 35.51 19.39 18.1 25.36 18.1 25.36 21.52 28.93 21.52 28.93 14.54 28.79 14.54 25.36 14.54 15.83 14.54 15.83 17.17 15.83 18.1 15.83 35.51 15.83 39.07 19.39 39.07 28.93 39.07 28.93 32.01"/>
        </g>
        <path class="cls-1" d="M39.32,1.68c0-.95.75-1.68,1.7-1.68s1.7.73,1.7,1.68-.74,1.67-1.7,1.67-1.7-.73-1.7-1.67ZM42.42,1.68c0-.8-.6-1.41-1.39-1.41s-1.39.61-1.39,1.41.6,1.4,1.39,1.4,1.39-.61,1.39-1.4ZM40.39,1.96v-.58c0-.29,0-.45-.02-.65h.64c.48,0,.74.17.74.49,0,.23-.17.41-.46.46l.75.93h-.52l-.62-.86h-.1v.21c0,.28,0,.45.02.65h-.45c0-.2.02-.37.02-.65ZM41.34,1.22c0-.21-.15-.35-.37-.35h-.16v.72h.16c.23,0,.37-.16.37-.37Z"/>
      </g>
      <g>
        <path class="cls-2" d="M56.85,11.26c-.4.2-1.19.4-2.21.4-2.36,0-4.13-1.49-4.13-4.23s1.77-4.39,4.37-4.39c1.04,0,1.7.22,1.99.37l-.26.88c-.41-.2-.99-.35-1.69-.35-1.96,0-3.26,1.25-3.26,3.45,0,2.05,1.18,3.36,3.21,3.36.66,0,1.33-.14,1.76-.35l.22.86Z"/>
        <path class="cls-2" d="M59.26,8.73c.02,1.48.97,2.08,2.06,2.08.78,0,1.25-.14,1.66-.31l.19.78c-.38.17-1.04.37-2,.37-1.85,0-2.95-1.22-2.95-3.03s1.07-3.24,2.82-3.24c1.96,0,2.48,1.72,2.48,2.83,0,.22-.03.4-.04.51h-4.22ZM62.46,7.95c.01-.69-.29-1.77-1.51-1.77-1.1,0-1.59,1.02-1.67,1.77h3.19Z"/>
        <path class="cls-2" d="M65.48,7.4c0-.71-.01-1.31-.05-1.87h.96l.04,1.18h.05c.27-.81.93-1.31,1.66-1.31.12,0,.21.01.31.04v1.03c-.11-.02-.22-.04-.37-.04-.77,0-1.32.58-1.46,1.4-.02.15-.05.32-.05.51v3.2h-1.08v-4.13Z"/>
        <path class="cls-2" d="M70.9,5.53l1.18,3.37c.2.55.36,1.04.48,1.54h.04c.14-.5.31-.99.51-1.54l1.17-3.37h1.14l-2.36,6h-1.04l-2.28-6h1.17Z"/>
        <path class="cls-2" d="M80.34,11.53l-.09-.76h-.04c-.33.47-.98.89-1.84.89-1.21,0-1.84-.86-1.84-1.72,0-1.45,1.29-2.25,3.61-2.23v-.12c0-.5-.14-1.39-1.36-1.39-.56,0-1.14.17-1.56.45l-.25-.72c.5-.32,1.22-.53,1.97-.53,1.84,0,2.28,1.25,2.28,2.46v2.25c0,.52.03,1.03.1,1.44h-.99ZM80.18,8.47c-1.19-.02-2.54.19-2.54,1.35,0,.71.47,1.04,1.03,1.04.78,0,1.28-.5,1.45-1,.04-.11.06-.24.06-.35v-1.04Z"/>
        <path class="cls-2" d="M83.61,7.16c0-.62-.01-1.13-.05-1.63h.97l.06.99h.02c.3-.57.99-1.13,1.99-1.13.83,0,2.12.5,2.12,2.56v3.58h-1.09v-3.46c0-.97-.36-1.77-1.39-1.77-.72,0-1.28.51-1.46,1.12-.05.14-.07.32-.07.51v3.61h-1.09v-4.38Z"/>
        <path class="cls-2" d="M92.39,3.81v1.72h1.56v.83h-1.56v3.24c0,.74.21,1.17.82,1.17.29,0,.5-.04.63-.07l.05.82c-.21.09-.55.15-.97.15-.51,0-.92-.16-1.18-.46-.31-.32-.42-.86-.42-1.56v-3.27h-.93v-.83h.93v-1.44l1.07-.29Z"/>
        <path class="cls-2" d="M96.33,8.73c.02,1.48.97,2.08,2.06,2.08.78,0,1.25-.14,1.66-.31l.19.78c-.38.17-1.04.37-2,.37-1.85,0-2.95-1.22-2.95-3.03s1.07-3.24,2.82-3.24c1.96,0,2.48,1.72,2.48,2.83,0,.22-.02.4-.04.51h-4.22ZM99.53,7.95c.01-.69-.29-1.77-1.51-1.77-1.1,0-1.59,1.02-1.67,1.77h3.19Z"/>
        <path class="cls-2" d="M102.41,10.42c.32.21.89.43,1.44.43.79,0,1.17-.4,1.17-.89,0-.52-.31-.81-1.12-1.1-1.08-.38-1.59-.98-1.59-1.7,0-.97.78-1.76,2.07-1.76.61,0,1.14.17,1.48.37l-.27.79c-.24-.15-.67-.35-1.23-.35-.65,0-1,.37-1,.82,0,.5.36.72,1.14,1.02,1.04.4,1.58.92,1.58,1.81,0,1.05-.82,1.8-2.25,1.8-.66,0-1.26-.16-1.69-.41l.27-.83Z"/>
        <path class="cls-2" d="M111.74,5.53l1.32,3.55c.14.4.29.87.38,1.23h.03c.11-.36.24-.82.38-1.25l1.19-3.52h1.15l-1.64,4.28c-.78,2.06-1.32,3.11-2.06,3.76-.53.47-1.07.66-1.34.71l-.27-.92c.27-.09.63-.26.96-.53.3-.24.67-.66.92-1.22.05-.11.09-.2.09-.26s-.03-.15-.08-.29l-2.22-5.53h1.19Z"/>
        <path class="cls-2" d="M52.08,18.04v3.49h4.03v-3.49h1.09v8.33h-1.09v-3.91h-4.03v3.91h-1.08v-8.33h1.08Z"/>
        <path class="cls-2" d="M60.81,23.58c.02,1.47.96,2.08,2.05,2.08.78,0,1.25-.14,1.66-.31l.19.78c-.38.17-1.04.37-1.99.37-1.84,0-2.94-1.21-2.94-3.02s1.06-3.23,2.81-3.23c1.95,0,2.47,1.72,2.47,2.82,0,.22-.02.4-.04.51h-4.2ZM63.99,22.8c.01-.69-.28-1.77-1.51-1.77-1.1,0-1.58,1.01-1.67,1.77h3.18Z"/>
        <path class="cls-2" d="M67.57,22.26c0-.7-.01-1.31-.05-1.87h.95l.04,1.17h.05c.27-.8.93-1.31,1.66-1.31.12,0,.21.01.31.04v1.03c-.11-.02-.22-.04-.37-.04-.77,0-1.31.58-1.46,1.4-.02.15-.05.32-.05.51v3.19h-1.08v-4.12Z"/>
        <path class="cls-2" d="M72.84,22.01c0-.62-.01-1.12-.05-1.62h.96l.06.99h.03c.3-.57.99-1.12,1.98-1.12.83,0,2.11.49,2.11,2.55v3.57h-1.09v-3.45c0-.96-.36-1.77-1.38-1.77-.72,0-1.27.51-1.46,1.11-.05.14-.07.32-.07.51v3.6h-1.09v-4.36Z"/>
        <path class="cls-2" d="M84.18,26.37l-.09-.75h-.04c-.33.47-.98.89-1.83.89-1.21,0-1.83-.85-1.83-1.72,0-1.45,1.29-2.24,3.6-2.22v-.12c0-.49-.14-1.38-1.36-1.38-.56,0-1.14.17-1.56.44l-.25-.72c.49-.32,1.21-.53,1.96-.53,1.83,0,2.27,1.25,2.27,2.45v2.24c0,.52.02,1.03.1,1.43h-.99ZM84.02,23.32c-1.19-.02-2.53.19-2.53,1.35,0,.7.47,1.04,1.03,1.04.78,0,1.27-.49,1.45-1,.04-.11.06-.23.06-.35v-1.04ZM84.57,17.81l-1.51,1.77h-.78l1.09-1.77h1.2Z"/>
        <path class="cls-2" d="M88.01,22.01c0-.62-.01-1.12-.05-1.62h.96l.06.99h.02c.3-.57.99-1.12,1.98-1.12.83,0,2.11.49,2.11,2.55v3.57h-1.09v-3.45c0-.96-.36-1.77-1.38-1.77-.72,0-1.27.51-1.46,1.11-.05.14-.07.32-.07.51v3.6h-1.09v-4.36Z"/>
        <path class="cls-2" d="M101.21,17.6v7.23c0,.53.01,1.14.05,1.54h-.98l-.05-1.04h-.03c-.33.67-1.06,1.17-2.04,1.17-1.45,0-2.56-1.22-2.56-3.04-.01-1.99,1.22-3.21,2.68-3.21.91,0,1.53.43,1.8.91h.03v-3.57h1.09ZM100.12,22.82c0-.14-.01-.32-.05-.46-.16-.69-.75-1.26-1.57-1.26-1.12,0-1.79.99-1.79,2.31,0,1.21.59,2.21,1.77,2.21.73,0,1.4-.48,1.59-1.3.04-.15.05-.3.05-.47v-1.04Z"/>
        <path class="cls-2" d="M104.8,23.58c.02,1.47.96,2.08,2.05,2.08.78,0,1.25-.14,1.66-.31l.19.78c-.38.17-1.04.37-1.99.37-1.84,0-2.94-1.21-2.94-3.02s1.06-3.23,2.81-3.23c1.95,0,2.47,1.72,2.47,2.82,0,.22-.02.4-.04.51h-4.2ZM107.98,22.8c.01-.69-.28-1.77-1.51-1.77-1.1,0-1.58,1.01-1.67,1.77h3.18Z"/>
        <path class="cls-2" d="M110.88,25.74l2.71-3.52c.26-.32.51-.61.78-.93v-.02h-3.24v-.88h4.56v.68s-2.68,3.47-2.68,3.47c-.25.33-.49.63-.77.94v.02h3.5v.87h-4.86v-.63Z"/>
        <path class="cls-2" d="M52.08,32.9v3.5h4.04v-3.5h1.09v8.36h-1.09v-3.92h-4.04v3.92h-1.08v-8.36h1.08Z"/>
        <path class="cls-2" d="M60.29,38.46c.02,1.48.97,2.08,2.06,2.08.78,0,1.25-.14,1.66-.31l.19.78c-.38.17-1.04.37-2,.37-1.85,0-2.95-1.22-2.95-3.03s1.07-3.24,2.82-3.24c1.96,0,2.48,1.72,2.48,2.83,0,.22-.02.4-.04.51h-4.22ZM63.49,37.68c.01-.69-.29-1.77-1.51-1.77-1.1,0-1.59,1.02-1.67,1.77h3.19Z"/>
        <path class="cls-2" d="M66.52,37.13c0-.71-.01-1.31-.05-1.87h.96l.04,1.18h.05c.27-.81.93-1.31,1.66-1.31.12,0,.21.01.31.04v1.03c-.11-.02-.22-.04-.37-.04-.77,0-1.32.58-1.46,1.4-.03.15-.05.32-.05.51v3.2h-1.08v-4.13Z"/>
        <path class="cls-2" d="M71.24,37.13c0-.71-.01-1.31-.05-1.87h.96l.04,1.18h.05c.27-.81.93-1.31,1.66-1.31.12,0,.21.01.31.04v1.03c-.11-.02-.22-.04-.37-.04-.77,0-1.32.58-1.46,1.4-.03.15-.05.32-.05.51v3.2h-1.08v-4.13Z"/>
        <path class="cls-2" d="M76.4,38.46c.02,1.48.97,2.08,2.06,2.08.78,0,1.25-.14,1.66-.31l.19.78c-.38.17-1.04.37-2,.37-1.85,0-2.95-1.22-2.95-3.03s1.07-3.24,2.82-3.24c1.96,0,2.48,1.72,2.48,2.83,0,.22-.03.4-.04.51h-4.22ZM79.61,37.68c.01-.69-.29-1.77-1.51-1.77-1.1,0-1.59,1.02-1.67,1.77h3.19Z"/>
        <path class="cls-2" d="M82.63,37.13c0-.71-.01-1.31-.05-1.87h.96l.04,1.18h.05c.27-.81.93-1.31,1.66-1.31.12,0,.21.01.31.04v1.03c-.11-.02-.22-.04-.37-.04-.77,0-1.32.58-1.46,1.4-.02.15-.05.32-.05.51v3.2h-1.08v-4.13Z"/>
        <path class="cls-2" d="M90.57,41.26l-.09-.76h-.04c-.33.47-.98.89-1.84.89-1.21,0-1.84-.86-1.84-1.72,0-1.45,1.29-2.25,3.61-2.23v-.12c0-.5-.14-1.39-1.36-1.39-.56,0-1.14.17-1.56.45l-.25-.72c.5-.32,1.22-.53,1.97-.53,1.84,0,2.28,1.25,2.28,2.46v2.25c0,.52.03,1.03.1,1.44h-.99ZM90.41,38.2c-1.19-.02-2.54.19-2.54,1.35,0,.71.47,1.04,1.03,1.04.78,0,1.28-.5,1.45-1,.04-.11.06-.24.06-.35v-1.04Z"/>
      </g>
      <g>
        <path class="cls-2" d="M50.78,47.44c.27-.04.62-.08,1.07-.08.55,0,.96.13,1.21.36.24.21.38.52.38.9s-.12.7-.33.92c-.29.31-.78.47-1.32.47-.17,0-.32,0-.45-.04v1.73h-.56v-4.27ZM51.34,49.52c.12.03.28.04.46.04.67,0,1.08-.33,1.08-.92s-.4-.85-1.02-.85c-.24,0-.43.02-.53.04v1.68Z"/>
        <path class="cls-2" d="M60.35,49.68h-1.68v1.56h1.87v.47h-2.43v-4.32h2.33v.47h-1.78v1.36h1.68v.46Z"/>
        <path class="cls-2" d="M65.2,51.71v-4.32h.61l1.38,2.19c.32.51.57.96.78,1.4h.01c-.05-.58-.06-1.11-.06-1.78v-1.81h.53v4.32h-.56l-1.37-2.19c-.3-.48-.59-.97-.81-1.44h-.02c.03.55.04,1.07.04,1.79v1.85h-.53Z"/>
        <path class="cls-2" d="M74.04,50.35l-.45,1.36h-.58l1.47-4.32h.67l1.47,4.32h-.6l-.46-1.36h-1.53ZM75.46,49.91l-.42-1.24c-.1-.28-.16-.54-.22-.79h-.01c-.06.26-.13.52-.22.78l-.42,1.25h1.3Z"/>
        <path class="cls-2" d="M81.19,47.39h.56v3.85h1.85v.47h-2.4v-4.32Z"/>
        <path class="cls-2" d="M88.7,47.39v4.32h-.56v-4.32h.56Z"/>
        <path class="cls-2" d="M93.53,51.03c.25.15.62.28,1,.28.57,0,.9-.3.9-.74,0-.4-.23-.63-.81-.86-.71-.25-1.14-.62-1.14-1.22,0-.67.56-1.17,1.4-1.17.44,0,.76.1.96.21l-.15.45c-.14-.08-.43-.21-.82-.21-.59,0-.81.35-.81.65,0,.4.26.6.86.83.73.28,1.1.63,1.1,1.27,0,.67-.49,1.24-1.51,1.24-.42,0-.87-.12-1.1-.28l.14-.47Z"/>
        <path class="cls-2" d="M101.25,47.86h-1.31v-.47h3.2v.47h-1.32v3.85h-.56v-3.85Z"/>
        <path class="cls-2" d="M108.24,50.35l-.45,1.36h-.58l1.47-4.32h.67l1.47,4.32h-.6l-.46-1.36h-1.53ZM109.65,49.91l-.42-1.24c-.1-.28-.16-.54-.22-.79h-.01c-.06.26-.13.52-.22.78l-.42,1.25h1.3Z"/>
        <path class="cls-2" d="M115.31,51.03c.25.15.62.28,1,.28.57,0,.9-.3.9-.74,0-.4-.23-.63-.81-.86-.71-.25-1.14-.62-1.14-1.22,0-.67.56-1.17,1.4-1.17.44,0,.76.1.96.21l-.15.45c-.14-.08-.43-.21-.82-.21-.59,0-.81.35-.81.65,0,.4.26.6.86.83.73.28,1.1.63,1.1,1.27,0,.67-.49,1.24-1.51,1.24-.42,0-.87-.12-1.1-.28l.14-.47Z"/>
      </g>
    </g>
  </g>
</svg>